HIERARCHY
ROOT Hips
{
  OFFSET 3.13124 94.3669 -3.18751
  CHANNELS  6 Xposition Yposition Zposition Zrotation Xrotation Yrotation
  JOINT LeftUpLeg
  {
    OFFSET 8.64259 1.95398 -2.38835
    CHANNELS 3 Zrotation Xrotation Yrotation
    JOINT LeftLeg
    {
      OFFSET 43.7702 0 0
      CHANNELS 3 Zrotation Xrotation Yrotation
      JOINT LeftFoot
      {
        OFFSET 40.6238 0 0
        CHANNELS 3 Zrotation Xrotation Yrotation
        JOINT LeftToeBase
        {
          OFFSET 12.7242 0 0
          CHANNELS 3 Zrotation Xrotation Yrotation
          End Site
          {
            OFFSET 0 0 0
          }
        }
      }
    }
  }
  JOINT RightUpLeg
  {
    OFFSET -8.2249 1.95398 -2.59336
    CHANNELS 3 Zrotation Xrotation Yrotation
    JOINT RightLeg
    {
      OFFSET 43.5653 0 0
      CHANNELS 3 Zrotation Xrotation Yrotation
      JOINT RightFoot
      {
        OFFSET 40.6238 0 0
        CHANNELS 3 Zrotation Xrotation Yrotation
        JOINT RightToeBase
        {
          OFFSET 12.7242 0 0
          CHANNELS 3 Zrotation Xrotation Yrotation
          End Site
          {
            OFFSET 0 0 0
          }
        }
      }
    }
  }
  JOINT Spine
  {
    OFFSET 0.165834 0.87714 6.61349
    CHANNELS 3 Zrotation Xrotation Yrotation
    JOINT Spine1
    {
      OFFSET 7.38962 1.71661e-005 0
      CHANNELS 3 Zrotation Xrotation Yrotation
      JOINT Spine2
      {
        OFFSET 11.9445 1.14441e-005 0
        CHANNELS 3 Zrotation Xrotation Yrotation
        JOINT Spine3
        {
          OFFSET 14.7254 4.19617e-005 0
          CHANNELS 3 Zrotation Xrotation Yrotation
          JOINT Spine4
          {
            OFFSET 10.9679 0 0
            CHANNELS 3 Zrotation Xrotation Yrotation
            JOINT RightShoulder
            {
              OFFSET 2.46616 -1.6653 3.69651
              CHANNELS 3 Zrotation Xrotation Yrotation
              JOINT RightArm
              {
                OFFSET 13.0012 0 0
                CHANNELS 3 Zrotation Xrotation Yrotation
                JOINT RightForeArm
                {
                  OFFSET 28.7848 1.52588e-005 0
                  CHANNELS 3 Zrotation Xrotation Yrotation
                  JOINT RightHand
                  {
                    OFFSET 26.5688 1.52588e-005 0
                    CHANNELS 3 Zrotation Xrotation Yrotation
                    End Site
                    {
                      OFFSET 0 0 0
                    }
                  }
                }
              }
            }
            JOINT LeftShoulder
            {
              OFFSET 2.38034 -1.29275 -3.75231
              CHANNELS 3 Zrotation Xrotation Yrotation
              JOINT LeftArm
              {
                OFFSET 16.3182 6.10352e-005 0
                CHANNELS 3 Zrotation Xrotation Yrotation
                JOINT LeftForeArm
                {
                  OFFSET 27.0901 0 0
                  CHANNELS 3 Zrotation Xrotation Yrotation
                  JOINT LeftHand
                  {
                    OFFSET 24.5451 1.52588e-005 0
                    CHANNELS 3 Zrotation Xrotation Yrotation
                    End Site
                    {
                      OFFSET 0 0 0
                    }
                  }
                }
              }
            }
            JOINT Neck
            {
              OFFSET 5.0226 -0.0266342 0
              CHANNELS 3 Zrotation Xrotation Yrotation
              JOINT Head
              {
                OFFSET 6.69363 2.86102e-005 0
                CHANNELS 3 Zrotation Xrotation Yrotation
                End Site
                {
                  OFFSET 0 0 0
                }
              }
            }
          }
        }
      }
    }
  }
}
MOTION
Frames:	13
Frame Time:	0.0333333
-22.3314 92.9574 27.2281 87.7926 -31.6362 96.7813 178.074 14.4364 71.301 -39.1389 -27.0767 -1.4012 0.969502 -2.59756 -7.77405 28.7808 1.97287e-006 3.42242e-006 -179.315 27.5583 100.398 -28.2053 0.656537 -0.0685521 43.7898 17.7706 15.359 28.7808 1.36711e-005 2.49709e-005 -0.710679 6.74931 -92.9993 13.3211 -2.65871 -4.2589 1.64641 -2.84228 -4.13808 -20.8401 -1.26552 -4.85909 -0.827486 -1.26553 -4.8591 106.516 -30.2669 -73.1713 -4.77347 32.9192 -35.2576 1.28001 60.738 -7.9446 -50.6975 16.3796 -39.4129 -80.8609 0.2322 85.8502 9.56113 -31.9178 -28.0353 1.5881 -79.2126 -1.89165 49.7591 -33.1344 -66.8451 18.5964 -12.4342 -30.7218 -24.6341 -7.1123 22.1644 
-20.3573 90.6916 25.4278 89.4306 -30.0768 97.1844 -179.984 16.9927 71.2515 -48.235 -27.0478 -1.21965 -6.33814 -7.90082 -19.8997 28.7808 1.97287e-006 3.42242e-006 178.832 30.2289 100.64 -39.9401 0.744519 -0.183256 58.746 10.1344 6.57277 28.7808 1.36711e-005 2.49709e-005 -0.46616 7.06203 -93.454 12.699 -2.24252 -4.89315 1.02113 -2.45542 -4.79004 -21.4425 -0.670967 -5.3389 -1.42987 -0.670987 -5.33893 105.711 -27.6692 -74.5163 -0.807056 29.6298 -32.1784 0.586538 56.696 -7.32981 -50.5761 15.6081 -37.94 -83.8253 -9.83425 80.5027 7.93317 -30.2599 -25.3782 1.51391 -74.926 -2.05148 46.5921 -29.2082 -63.9871 17.8157 -8.88375 -23.5907 -26.7402 -5.25622 16.5832 
-19.0316 88.2824 23.8215 91.3888 -29.106 98.4469 -177.088 19.2696 72.3397 -63.9991 -26.9447 -0.941239 12.0918 -20.9588 -32.0996 28.7808 1.97287e-006 3.42242e-006 177.764 31.5504 100.963 -47.3728 2.59639 -0.195297 68.1 7.04728 3.64635 28.7808 1.36711e-005 2.49709e-005 -0.0296449 7.41146 -93.6144 11.9807 -1.46341 -5.44938 0.299473 -1.70239 -5.37982 -22.1439 0.244067 -5.64795 -2.13129 0.244064 -5.64797 105.347 -25.8033 -75.0977 3.51631 26.5164 -29.7906 0.734701 57.6429 -7.45945 -50.7289 15.5045 -37.6344 -86.2706 -16.6534 76.3808 4.38014 -27.9559 -23.7643 1.50851 -63.5764 -2.29369 54.7161 -27.4159 -52.7978 16.7303 -6.25451 -18.1353 -28.2379 -3.51775 11.3162 
-17.9777 86.0999 22.3765 91.2724 -26.9977 97.2985 -173.951 26.2563 72.9295 -82.5252 -54.5915 -3.66478 11.7225 -31.7252 -46.4723 28.7808 1.97287e-006 3.42242e-006 177.434 33.3139 99.1591 -52.7204 5.44272 -0.124609 77.4867 1.59357 0.397867 28.7808 1.36711e-005 2.49709e-005 0.125708 7.5887 -93.3683 11.6502 -1.03417 -5.43039 -0.0312345 -1.2693 -5.38172 -22.4759 0.642357 -5.47897 -2.46326 0.642342 -5.47899 104.463 -25.9167 -77.0384 7.73639 23.6932 -27.6069 0.689726 57.3609 -7.41962 -49.8544 15.2481 -37.6694 -87.4923 -21.3406 75.3419 0.239725 -25.748 -23.5078 1.51594 -61.9804 -2.3202 53.3471 -26.2133 -51.8117 15.9524 -4.46966 -15.2156 -29.1116 -2.0033 7.92078 
-16.7481 84.9699 21.1575 89.9565 -23.3647 94.7199 -172.412 35.6809 75.2058 115.517 -80.9771 -156.68 -5.53065 -30.3113 -60.701 28.7808 1.97287e-006 3.42242e-006 177.86 35.2045 96.2435 -55.8422 10.8386 0.125211 82.5665 -3.68785 -1.77382 28.7808 1.36711e-005 2.49709e-005 0.0822607 7.63462 -92.5409 11.5576 -1.0237 -5.05214 -0.122332 -1.24198 -5.00233 -22.5791 0.538477 -5.11557 -2.56643 0.538452 -5.1156 103.701 -28.7308 -78.8502 9.23848 22.8795 -28.0509 2.63058 66.4364 -9.18702 -44.9649 11.1206 -32.0226 -87.1385 -25.9128 77.62 -3.26871 -23.8422 -23.0538 1.54045 -57.7925 -2.38584 55.2269 -25.6268 -49.184 16.7607 -3.34266 -13.862 -30.4845 -0.85273 6.28093 
-15.5728 84.0984 20.233 89.2432 -21.3946 94.862 -176.597 43.3884 85.1263 107.89 -79.2729 -160.921 11.5076 -34.3781 -50.0693 28.7808 1.97287e-006 3.42242e-006 177.732 36.6186 95.7616 -58.4419 12.8352 0.19537 83.5336 -4.67914 -2.11431 28.7808 1.36711e-005 2.49709e-005 0.190257 7.66157 -92.4841 11.5096 -0.736335 -5.07209 -0.170946 -0.958601 -5.03497 -22.6277 0.820108 -5.06073 -2.61503 0.820082 -5.06076 103.169 -30.9385 -80.0278 11.1285 21.6406 -26.5986 1.38012 61.2491 -8.03403 -44.2315 11.7248 -33.9413 -85.7003 -30.5621 81.7098 -5.95576 -22.1533 -20.7548 1.58932 -51.2265 -2.48221 63.148 -23.2307 -39.6808 17.2892 -2.42288 -12.684 -31.3333 -0.0188824 5.28852 
-14.0321 84.0535 19.2561 88.3036 -18.7801 94.9049 175.41 46.8604 98.9002 -154.68 -86.3739 -68.6168 32.9303 -32.4103 -33.0983 28.7808 1.97287e-006 3.42242e-006 177.968 36.65 94.7404 -58.8135 15.9302 0.393109 83.9869 -4.28687 -1.95911 28.7808 1.36711e-005 2.49709e-005 0.396994 7.5922 -92.7339 11.6498 -0.485872 -5.14515 -0.0311299 -0.711362 -5.11811 -22.4867 1.07942 -5.05937 -2.47402 1.07944 -5.0594 102.719 -31.5381 -80.9458 12.1523 20.6622 -21.8531 -0.304546 49.7792 -6.57609 -41.3019 10.6772 -33.4365 -83.8307 -33.7749 85.8563 -8.48053 -20.4847 -16.7295 1.59584 -50.449 -2.49329 66.1745 -21.5859 -35.5146 18.3279 -2.05734 -10.7689 -32.2074 0.402633 3.14109 
-11.9294 85.3223 17.9491 87.5646 -15.2076 94.1681 170.737 46.4968 109.018 -84.4544 -72.0648 -10.0935 50.8897 -21.1833 -15.7452 28.7808 1.97287e-006 3.42242e-006 178.878 34.2521 91.954 -56.1091 19.1683 0.673846 83.1076 -2.72739 -1.40701 28.7808 1.36711e-005 2.49709e-005 0.643579 7.50019 -92.7887 11.8388 -0.0703973 -4.88528 0.158759 -0.28511 -4.87746 -22.307 1.3995 -4.68173 -2.29438 1.39948 -4.68174 103.868 -34.7134 -78.7903 10.8199 20.9652 -17.3291 -1.45475 36.3893 -5.71507 -39.114 10.3846 -34.1741 -80.6269 -35.0161 91.8973 -11.6357 -18.8118 -13.394 1.62795 -46.7177 -2.54535 67.7891 -20.6797 -33.3678 20.1693 -4.43223 -12.5932 -33.5743 -1.18012 3.11041 
-9.2861 87.9671 16.2697 87.325 -10.9828 93.5806 170.895 45.3328 114.226 -64.7203 -65.1808 -7.46806 51.9135 -5.76527 -4.45894 28.7808 1.97287e-006 3.42242e-006 179.598 28.704 88.9806 -49.113 22.5782 1.05723 79.714 -1.04142 -0.753704 28.7808 1.36711e-005 2.49709e-005 0.978541 7.32764 -92.7003 12.1931 0.534454 -4.74792 0.51358 0.325295 -4.76684 -21.9613 1.93534 -4.36709 -1.94866 1.93532 -4.36711 106.854 -37.7294 -73.4551 7.18387 22.3252 -14.4421 -1.67831 32.9911 -5.56731 -31.1742 7.00865 -30.4871 -77.168 -34.9198 98.2336 -14.6528 -17.4232 -10.6048 1.743 -35.5272 -2.70395 70.4174 -11.8262 -20.1709 21.34 -8.22573 -15.9658 -34.7778 -3.94696 4.02378 
-5.94027 91.4518 13.8895 89.32 -4.62958 92.5597 174.928 42.0759 112.739 -47.801 -63.8601 -7.53053 36.2097 1.01339 -0.0669035 28.7808 1.97287e-006 3.42242e-006 179.42 18.6585 85.6282 -39.0954 27.0985 1.59839 72.3541 -0.0835049 -0.207115 28.7808 1.36711e-005 2.49709e-005 1.2188 7.14973 -92.7017 12.5485 0.929294 -4.73473 0.869131 0.720766 -4.77166 -21.6118 2.29561 -4.22636 -1.59914 2.29561 -4.22639 109.746 -37.885 -68.2246 3.55561 23.1724 -9.52465 -1.96017 28.264 -5.39789 -29.2515 4.68094 -23.2343 -76.0187 -33.2505 100.411 -16.1586 -16.715 -6.07846 1.79412 -30.965 -2.76891 64.5869 -11.6856 -22.017 14.7846 -11.9465 -19.6835 -29.5788 -7.34642 3.7149 
-2.30708 95.2583 10.5414 92.3194 3.41432 90.5574 179.656 34.9441 105.032 -35.3683 -68.1261 -9.71658 26.5139 2.30854 1.1708 28.7808 1.97287e-006 3.42242e-006 178.144 9.859 81.0062 -31.9781 31.598 2.07629 53.9769 -0.543364 -0.0843412 28.7808 1.36711e-005 2.49709e-005 1.16191 7.01465 -92.345 12.8349 1.01943 -4.26324 1.15726 0.830792 -4.30362 -21.3355 2.24736 -3.76276 -1.32285 2.24736 -3.76277 112.509 -38.981 -63.5305 -2.53988 24.481 -4.07315 -2.30066 21.8723 -5.21847 -15.4571 0.898599 -12.2049 -75.9276 -27.9107 100.83 -15.489 -16.8933 -3.55063 1.6383 -45.6783 -2.56058 55.3213 -17.7031 -35.8183 4.06187 -14.9989 -27.7879 -20.1015 -10.8394 5.68512 
1.18684 98.2819 6.19528 94.0856 9.59777 90.2088 -179.816 31.197 101.16 -30.4114 -63.1046 -7.48842 9.87415 4.20514 3.87771 28.7808 1.97287e-006 3.42242e-006 176.822 5.15968 78.5702 -25.887 34.7316 2.4417 26.7388 -5.76238 -5.18382 28.7808 1.36711e-005 2.49709e-005 1.31152 6.66456 -92.6944 13.5289 1.135 -4.87766 1.84919 0.920459 -4.92256 -20.6301 2.54051 -4.31398 -0.617472 2.5405 -4.31401 114.543 -35.5533 -58.8797 -7.73481 25.6057 -1.28758 -2.70764 13.2833 -5.04927 -1.43552 -0.0478351 -2.18768 -75.95 -26.6366 100.863 -10.7485 -18.282 -1.02113 1.69149 -40.2504 -2.63581 64.9831 -17.0195 -29.2366 -4.81058 -15.7319 -28.5742 -12.6333 -13.2795 3.98743 
4.22445 100.847 1.59436 94.839 12.6951 91.6817 -178.932 23.1425 98.4393 -21.1871 -60.4652 -7.02947 7.25322 4.25411 4.03712 28.7808 1.97287e-006 3.42242e-006 174.538 -1.51344 79.2735 -8.18694 28.3489 1.90301 20.4638 -5.48415 -5.37349 28.7808 1.36711e-005 2.49709e-005 1.20034 6.47046 -92.9213 13.905 0.86901 -5.15866 2.22408 0.64258 -5.1917 -20.2442 2.3697 -4.66148 -0.23157 2.36968 -4.66152 112.395 -37.4627 -63.3151 -13.7065 26.6276 1.86069 -2.97284 7.21459 -4.96887 -0.799213 -0.0412779 3.04568 -71.9289 -14.526 111.797 -14.2779 -17.1917 -1.01461 2.11788 -8.43939 -3.13765 57.078 -4.19163 -11.6727 -9.60704 -15.8406 -38.2082 -7.86786 -14.246 12.2113 
